<?xml version="1.0" encoding="UTF-8" standalone="no"?>
<svg
   width="314"
   height="120"
   viewBox="0 0 83.079166 31.750001"
   version="1.1"
   id="svg8"
   inkscape:version="1.1 (c68e22c387, 2021-05-23)"
   sodipodi:docname="PrismCard.svg"
   xmlns:inkscape="http://www.inkscape.org/namespaces/inkscape"
   xmlns:sodipodi="http://sodipodi.sourceforge.net/DTD/sodipodi-0.dtd"
   xmlns:xlink="http://www.w3.org/1999/xlink"
   xmlns="http://www.w3.org/2000/svg"
   xmlns:svg="http://www.w3.org/2000/svg"
   xmlns:rdf="http://www.w3.org/1999/02/22-rdf-syntax-ns#"
   xmlns:cc="http://creativecommons.org/ns#"
   xmlns:dc="http://purl.org/dc/elements/1.1/">
  <defs
     id="defs2">
    <rect
       x="121.85065"
       y="30.471104"
       width="169.62946"
       height="87.134048"
       id="rect4833" />
    <rect
       x="142.59846"
       y="213.62965"
       width="97.350372"
       height="66.627724"
       id="rect2912" />
    <rect
       x="155.5164"
       y="212.23183"
       width="39.262939"
       height="27.840206"
       id="rect2906" />
    <linearGradient
       inkscape:collect="always"
       id="linearGradient1371">
      <stop
         style="stop-color:#ffc107;stop-opacity:1"
         offset="0"
         id="stop1367" />
      <stop
         style="stop-color:#ff8407;stop-opacity:1"
         offset="1"
         id="stop1369" />
    </linearGradient>
    <linearGradient
       inkscape:collect="always"
       id="linearGradient1050">
      <stop
         style="stop-color:#9d7ed5;stop-opacity:1;"
         offset="0"
         id="stop1046" />
      <stop
         style="stop-color:#9d7ed5;stop-opacity:0;"
         offset="1"
         id="stop1048" />
    </linearGradient>
    <linearGradient
       inkscape:collect="always"
       xlink:href="#linearGradient1050"
       id="linearGradient1052"
       x1="303.62961"
       y1="150.61401"
       x2="308.60956"
       y2="155.53462"
       gradientUnits="userSpaceOnUse"
       gradientTransform="translate(0.02407367,-0.02407367)" />
    <linearGradient
       inkscape:collect="always"
       xlink:href="#linearGradient1371"
       id="linearGradient1195"
       gradientUnits="userSpaceOnUse"
       gradientTransform="translate(-249.52915,235.59856)"
       x1="303.62961"
       y1="150.61401"
       x2="308.60956"
       y2="155.53462" />
    <linearGradient
       inkscape:collect="always"
       xlink:href="#linearGradient1371"
       id="linearGradient1245"
       gradientUnits="userSpaceOnUse"
       gradientTransform="translate(-557.77656,124.07675)"
       x1="303.62961"
       y1="150.61401"
       x2="308.60956"
       y2="155.53462" />
    <linearGradient
       inkscape:collect="always"
       xlink:href="#linearGradient1371"
       id="linearGradient1247"
       gradientUnits="userSpaceOnUse"
       gradientTransform="translate(-694.38813,-324.52299)"
       x1="303.62961"
       y1="150.61401"
       x2="308.60956"
       y2="155.53462" />
    <linearGradient
       inkscape:collect="always"
       xlink:href="#linearGradient1371"
       id="linearGradient1309"
       gradientUnits="userSpaceOnUse"
       gradientTransform="translate(-398.67651,-532.05456)"
       x1="303.62961"
       y1="150.61401"
       x2="308.60956"
       y2="155.53462" />
    <linearGradient
       inkscape:collect="always"
       xlink:href="#linearGradient1371"
       id="linearGradient1311"
       gradientUnits="userSpaceOnUse"
       gradientTransform="translate(-44.80175,-466.17817)"
       x1="303.62961"
       y1="150.61401"
       x2="308.60956"
       y2="155.53462" />
    <linearGradient
       inkscape:collect="always"
       xlink:href="#linearGradient1371"
       id="linearGradient1313"
       gradientUnits="userSpaceOnUse"
       gradientTransform="translate(-580.60303,146.90451)"
       x1="303.62961"
       y1="150.61401"
       x2="308.60956"
       y2="155.53462" />
    <linearGradient
       inkscape:collect="always"
       xlink:href="#linearGradient1371"
       id="linearGradient1576"
       gradientUnits="userSpaceOnUse"
       gradientTransform="translate(-67.602611,-443.36044)"
       x1="303.62961"
       y1="150.61401"
       x2="308.60956"
       y2="155.53462" />
    <filter
       inkscape:collect="always"
       style="color-interpolation-filters:sRGB"
       id="filter1641"
       x="-0.059432522"
       width="1.118865"
       y="-0.040256251"
       height="1.0805125">
      <feGaussianBlur
         inkscape:collect="always"
         stdDeviation="0.35433031"
         id="feGaussianBlur1643" />
    </filter>
    <filter
       inkscape:collect="always"
       style="color-interpolation-filters:sRGB"
       id="filter1647"
       x="-0.059432102"
       width="1.1188642"
       y="-0.040256445"
       height="1.0805129">
      <feGaussianBlur
         inkscape:collect="always"
         stdDeviation="0.35432774"
         id="feGaussianBlur1649" />
    </filter>
    <filter
       inkscape:collect="always"
       style="color-interpolation-filters:sRGB"
       id="filter1653"
       x="-0.059428734"
       width="1.1188575"
       y="-0.040257993"
       height="1.080516">
      <feGaussianBlur
         inkscape:collect="always"
         stdDeviation="0.35430743"
         id="feGaussianBlur1655" />
    </filter>
    <filter
       inkscape:collect="always"
       style="color-interpolation-filters:sRGB"
       id="filter1659"
       x="-0.059428306"
       width="1.1188566"
       y="-0.040258186"
       height="1.0805164">
      <feGaussianBlur
         inkscape:collect="always"
         stdDeviation="0.35430506"
         id="feGaussianBlur1661" />
    </filter>
    <filter
       inkscape:collect="always"
       style="color-interpolation-filters:sRGB"
       id="filter2001"
       x="-0.029081046"
       width="1.0581621"
       y="-0.13736252"
       height="1.274725">
      <feGaussianBlur
         inkscape:collect="always"
         stdDeviation="0.2861719"
         id="feGaussianBlur2003" />
    </filter>
    <rect
       x="142.59846"
       y="213.62965"
       width="89.036301"
       height="60.619942"
       id="rect2920" />
    <linearGradient
       inkscape:collect="always"
       xlink:href="#linearGradient1371"
       id="linearGradient3047"
       x1="20.277922"
       y1="122.42"
       x2="72.392479"
       y2="122.42"
       gradientUnits="userSpaceOnUse" />
    <linearGradient
       inkscape:collect="always"
       xlink:href="#linearGradient1371"
       id="linearGradient8015"
       gradientUnits="userSpaceOnUse"
       gradientTransform="matrix(1.5079273,0,0,1.5079273,-305.23776,-331.61478)"
       x1="303.62961"
       y1="150.61401"
       x2="308.60956"
       y2="155.53462" />
  </defs>
  <sodipodi:namedview
     id="base"
     pagecolor="#000000"
     bordercolor="#666666"
     borderopacity="1.0"
     inkscape:pageopacity="0"
     inkscape:pageshadow="2"
     inkscape:zoom="2.8"
     inkscape:cx="151.42857"
     inkscape:cy="80.892857"
     inkscape:document-units="px"
     inkscape:current-layer="layer1"
     inkscape:document-rotation="0"
     showgrid="false"
     units="px"
     inkscape:window-width="1886"
     inkscape:window-height="1016"
     inkscape:window-x="34"
     inkscape:window-y="34"
     inkscape:window-maximized="1"
     inkscape:pagecheckerboard="0" />
  <metadata
     id="metadata5">
    <rdf:RDF>
      <cc:Work
         rdf:about="">
        <dc:format>image/svg+xml</dc:format>
        <dc:type
           rdf:resource="http://purl.org/dc/dcmitype/StillImage" />
      </cc:Work>
    </rdf:RDF>
  </metadata>
  <g
     inkscape:label="Layer 1"
     inkscape:groupmode="layer"
     id="layer1">
    <rect
       style="fill:#1e1e1e;fill-opacity:1;stroke-width:1.06738"
       id="rect2380"
       width="83.34375"
       height="31.75"
       x="3.5527137e-15"
       y="0" />
    <text
       xml:space="preserve"
       id="text2904"
       style="font-style:normal;font-weight:normal;font-size:10.5833px;line-height:1.25;font-family:sans-serif;white-space:pre;shape-inside:url(#rect2906);fill:#000000;fill-opacity:1;stroke:none;shape-rendering:crispEdges"
       transform="translate(-57.647657,-81.909426)"><tspan
         x="155.51562"
         y="249.43601"
         id="tspan9153"><tspan
           dx="0 8.3302145 6.2631636 6.5112095 4.3511429 2.9403801 6.4853706 6.7179146 6.7179146 2.9403801 6.7075806 6.7179108 3.3641281 6.4750366 6.2631607 6.5112152 4.3511353 3.3641281 6.5112076 6.4853745 5.8187485 6.7075806 3.3641205 6.4750366 4.1496124 6.7075806 6.5112"
           style="fill:#ffffff"
           id="tspan9151">Overlapping over each other</tspan></tspan></text>
    <g
       id="g8619"
       transform="translate(1.0526975,0.73773035)">
      <g
         id="g1313"
         transform="matrix(0.49460253,-0.28555888,0.28555888,0.49460253,-86.281359,-48.973903)"
         style="shape-rendering:crispEdges">
        <path
           style="color:#000000;font-style:normal;font-variant:normal;font-weight:normal;font-stretch:normal;font-size:medium;line-height:normal;font-family:sans-serif;font-variant-ligatures:normal;font-variant-position:normal;font-variant-caps:normal;font-variant-numeric:normal;font-variant-alternates:normal;font-variant-east-asian:normal;font-feature-settings:normal;font-variation-settings:normal;text-indent:0;text-align:start;text-decoration:none;text-decoration-line:none;text-decoration-style:solid;text-decoration-color:#000000;letter-spacing:normal;word-spacing:normal;text-transform:none;writing-mode:lr-tb;direction:ltr;text-orientation:mixed;dominant-baseline:auto;baseline-shift:baseline;text-anchor:start;white-space:normal;shape-padding:0;shape-margin:0;inline-size:0;clip-rule:nonzero;display:inline;overflow:visible;visibility:visible;opacity:1;isolation:auto;mix-blend-mode:normal;color-interpolation:sRGB;color-interpolation-filters:linearRGB;solid-color:#000000;solid-opacity:1;vector-effect:none;fill:#464646;fill-opacity:1;fill-rule:nonzero;stroke:none;stroke-linecap:round;stroke-linejoin:round;stroke-miterlimit:4;stroke-dasharray:none;stroke-dashoffset:0;stroke-opacity:1;color-rendering:auto;image-rendering:auto;shape-rendering:auto;text-rendering:auto;enable-background:accumulate;stop-color:#000000;stop-opacity:1"
           d="m 90.906131,174.88687 a 2.5,2.5 0 0 0 -2.5,2.5 2.5,2.5 0 0 0 2.5,2.5 h 18.617189 a 2.5,2.5 0 0 0 2.5,-2.5 2.5,2.5 0 0 0 -2.5,-2.5 z"
           id="path1113" />
        <g
           id="g1985"
           transform="translate(-251.24035,22.14468)">
          <path
             style="color:#000000;font-style:normal;font-variant:normal;font-weight:normal;font-stretch:normal;font-size:medium;line-height:normal;font-family:sans-serif;font-variant-ligatures:normal;font-variant-position:normal;font-variant-caps:normal;font-variant-numeric:normal;font-variant-alternates:normal;font-variant-east-asian:normal;font-feature-settings:normal;font-variation-settings:normal;text-indent:0;text-align:start;text-decoration:none;text-decoration-line:none;text-decoration-style:solid;text-decoration-color:#000000;letter-spacing:normal;word-spacing:normal;text-transform:none;writing-mode:lr-tb;direction:ltr;text-orientation:mixed;dominant-baseline:auto;baseline-shift:baseline;text-anchor:start;white-space:normal;shape-padding:0;shape-margin:0;inline-size:0;clip-rule:nonzero;display:inline;overflow:visible;visibility:visible;opacity:1;isolation:auto;mix-blend-mode:normal;color-interpolation:sRGB;color-interpolation-filters:linearRGB;solid-color:#000000;solid-opacity:1;vector-effect:none;fill:#000000;fill-opacity:1;fill-rule:nonzero;stroke:none;stroke-linecap:round;stroke-linejoin:round;stroke-miterlimit:4;stroke-dasharray:none;stroke-dashoffset:0;stroke-opacity:1;filter:url(#filter1659);color-rendering:auto;image-rendering:auto;shape-rendering:auto;text-rendering:auto;enable-background:accumulate;stop-color:#000000;stop-opacity:1"
             d="m 370.05078,168.86133 a 2.5,2.5 0 0 0 -2.14453,1.25 l -9.30859,16.12305 a 2.5,2.5 0 0 0 0.91601,3.41406 2.5,2.5 0 0 0 3.41406,-0.91406 l 9.3086,-16.12305 a 2.5,2.5 0 0 0 -0.91406,-3.41602 2.5,2.5 0 0 0 -1.27149,-0.33398 z"
             id="path1657" />
          <path
             style="color:#000000;font-style:normal;font-variant:normal;font-weight:normal;font-stretch:normal;font-size:medium;line-height:normal;font-family:sans-serif;font-variant-ligatures:normal;font-variant-position:normal;font-variant-caps:normal;font-variant-numeric:normal;font-variant-alternates:normal;font-variant-east-asian:normal;font-feature-settings:normal;font-variation-settings:normal;text-indent:0;text-align:start;text-decoration:none;text-decoration-line:none;text-decoration-style:solid;text-decoration-color:#000000;letter-spacing:normal;word-spacing:normal;text-transform:none;writing-mode:lr-tb;direction:ltr;text-orientation:mixed;dominant-baseline:auto;baseline-shift:baseline;text-anchor:start;white-space:normal;shape-padding:0;shape-margin:0;inline-size:0;clip-rule:nonzero;display:inline;overflow:visible;visibility:visible;opacity:1;isolation:auto;mix-blend-mode:normal;color-interpolation:sRGB;color-interpolation-filters:linearRGB;solid-color:#000000;solid-opacity:1;vector-effect:none;fill:#464646;fill-opacity:1;fill-rule:nonzero;stroke:none;stroke-linecap:round;stroke-linejoin:round;stroke-miterlimit:4;stroke-dasharray:none;stroke-dashoffset:0;stroke-opacity:1;color-rendering:auto;image-rendering:auto;shape-rendering:auto;text-rendering:auto;enable-background:accumulate;stop-color:#000000;stop-opacity:1"
             d="m 370.05078,168.86133 a 2.5,2.5 0 0 0 -2.14453,1.25 l -9.30859,16.12305 a 2.5,2.5 0 0 0 0.91601,3.41406 2.5,2.5 0 0 0 3.41406,-0.91406 l 9.3086,-16.12305 a 2.5,2.5 0 0 0 -0.91406,-3.41602 2.5,2.5 0 0 0 -1.27149,-0.33398 z"
             id="path1291" />
        </g>
        <g
           id="g1981"
           transform="translate(-251.24035,22.14468)">
          <path
             style="color:#000000;font-style:normal;font-variant:normal;font-weight:normal;font-stretch:normal;font-size:medium;line-height:normal;font-family:sans-serif;font-variant-ligatures:normal;font-variant-position:normal;font-variant-caps:normal;font-variant-numeric:normal;font-variant-alternates:normal;font-variant-east-asian:normal;font-feature-settings:normal;font-variation-settings:normal;text-indent:0;text-align:start;text-decoration:none;text-decoration-line:none;text-decoration-style:solid;text-decoration-color:#000000;letter-spacing:normal;word-spacing:normal;text-transform:none;writing-mode:lr-tb;direction:ltr;text-orientation:mixed;dominant-baseline:auto;baseline-shift:baseline;text-anchor:start;white-space:normal;shape-padding:0;shape-margin:0;inline-size:0;clip-rule:nonzero;display:inline;overflow:visible;visibility:visible;opacity:1;isolation:auto;mix-blend-mode:normal;color-interpolation:sRGB;color-interpolation-filters:linearRGB;solid-color:#000000;solid-opacity:1;vector-effect:none;fill:#000000;fill-opacity:1;fill-rule:nonzero;stroke:none;stroke-linecap:round;stroke-linejoin:round;stroke-miterlimit:4;stroke-dasharray:none;stroke-dashoffset:0;stroke-opacity:1;filter:url(#filter1653);color-rendering:auto;image-rendering:auto;shape-rendering:auto;text-rendering:auto;enable-background:accumulate;stop-color:#000000;stop-opacity:1"
             d="m 332.79688,168.88281 a 2.5,2.5 0 0 0 -1.20899,0.33399 2.5,2.5 0 0 0 -0.91406,3.41601 l 9.30859,16.12305 a 2.5,2.5 0 0 0 3.41406,0.91406 2.5,2.5 0 0 0 0.91602,-3.41406 l -9.30859,-16.12305 a 2.5,2.5 0 0 0 -2.20703,-1.25 z"
             id="path1651" />
          <path
             style="color:#000000;font-style:normal;font-variant:normal;font-weight:normal;font-stretch:normal;font-size:medium;line-height:normal;font-family:sans-serif;font-variant-ligatures:normal;font-variant-position:normal;font-variant-caps:normal;font-variant-numeric:normal;font-variant-alternates:normal;font-variant-east-asian:normal;font-feature-settings:normal;font-variation-settings:normal;text-indent:0;text-align:start;text-decoration:none;text-decoration-line:none;text-decoration-style:solid;text-decoration-color:#000000;letter-spacing:normal;word-spacing:normal;text-transform:none;writing-mode:lr-tb;direction:ltr;text-orientation:mixed;dominant-baseline:auto;baseline-shift:baseline;text-anchor:start;white-space:normal;shape-padding:0;shape-margin:0;inline-size:0;clip-rule:nonzero;display:inline;overflow:visible;visibility:visible;opacity:1;isolation:auto;mix-blend-mode:normal;color-interpolation:sRGB;color-interpolation-filters:linearRGB;solid-color:#000000;solid-opacity:1;vector-effect:none;fill:#464646;fill-opacity:1;fill-rule:nonzero;stroke:none;stroke-linecap:round;stroke-linejoin:round;stroke-miterlimit:4;stroke-dasharray:none;stroke-dashoffset:0;stroke-opacity:1;color-rendering:auto;image-rendering:auto;shape-rendering:auto;text-rendering:auto;enable-background:accumulate;stop-color:#000000;stop-opacity:1"
             d="m 332.79688,168.88281 a 2.5,2.5 0 0 0 -1.20899,0.33399 2.5,2.5 0 0 0 -0.91406,3.41601 l 9.30859,16.12305 a 2.5,2.5 0 0 0 3.41406,0.91406 2.5,2.5 0 0 0 0.91602,-3.41406 l -9.30859,-16.12305 a 2.5,2.5 0 0 0 -2.20703,-1.25 z"
             id="path1299" />
        </g>
        <g
           id="g2247"
           transform="translate(-251.24035,22.14468)">
          <g
             id="g2211">
            <path
               style="color:#000000;font-style:normal;font-variant:normal;font-weight:normal;font-stretch:normal;font-size:medium;line-height:normal;font-family:sans-serif;font-variant-ligatures:normal;font-variant-position:normal;font-variant-caps:normal;font-variant-numeric:normal;font-variant-alternates:normal;font-variant-east-asian:normal;font-feature-settings:normal;font-variation-settings:normal;text-indent:0;text-align:start;text-decoration:none;text-decoration-line:none;text-decoration-style:solid;text-decoration-color:#000000;letter-spacing:normal;word-spacing:normal;text-transform:none;writing-mode:lr-tb;direction:ltr;text-orientation:mixed;dominant-baseline:auto;baseline-shift:baseline;text-anchor:start;white-space:normal;shape-padding:0;shape-margin:0;inline-size:0;clip-rule:nonzero;display:inline;overflow:visible;visibility:visible;opacity:1;isolation:auto;mix-blend-mode:normal;color-interpolation:sRGB;color-interpolation-filters:linearRGB;solid-color:#000000;solid-opacity:1;vector-effect:none;fill:#000000;fill-opacity:1;fill-rule:nonzero;stroke:none;stroke-linecap:round;stroke-linejoin:round;stroke-miterlimit:4;stroke-dasharray:none;stroke-dashoffset:0;stroke-opacity:1;filter:url(#filter1641);color-rendering:auto;image-rendering:auto;shape-rendering:auto;text-rendering:auto;enable-background:accumulate;stop-color:#000000;stop-opacity:1"
               d="m 360.72266,152.74219 a 2.5,2.5 0 0 0 -1.20899,0.33593 2.5,2.5 0 0 0 -0.91601,3.41407 l 9.30859,16.12304 a 2.5,2.5 0 0 0 3.41602,0.91602 2.5,2.5 0 0 0 0.91406,-3.41602 l -9.3086,-16.12304 a 2.5,2.5 0 0 0 -2.20507,-1.25 z"
               id="path1639" />
            <g
               id="g1992">
              <g
                 id="g1988">
                <path
                   style="color:#000000;font-style:normal;font-variant:normal;font-weight:normal;font-stretch:normal;font-size:medium;line-height:normal;font-family:sans-serif;font-variant-ligatures:normal;font-variant-position:normal;font-variant-caps:normal;font-variant-numeric:normal;font-variant-alternates:normal;font-variant-east-asian:normal;font-feature-settings:normal;font-variation-settings:normal;text-indent:0;text-align:start;text-decoration:none;text-decoration-line:none;text-decoration-style:solid;text-decoration-color:#000000;letter-spacing:normal;word-spacing:normal;text-transform:none;writing-mode:lr-tb;direction:ltr;text-orientation:mixed;dominant-baseline:auto;baseline-shift:baseline;text-anchor:start;white-space:normal;shape-padding:0;shape-margin:0;inline-size:0;clip-rule:nonzero;display:inline;overflow:visible;visibility:visible;opacity:1;isolation:auto;mix-blend-mode:normal;color-interpolation:sRGB;color-interpolation-filters:linearRGB;solid-color:#000000;solid-opacity:1;vector-effect:none;fill:#464646;fill-opacity:1;fill-rule:nonzero;stroke:none;stroke-linecap:round;stroke-linejoin:round;stroke-miterlimit:4;stroke-dasharray:none;stroke-dashoffset:0;stroke-opacity:1;color-rendering:auto;image-rendering:auto;shape-rendering:auto;text-rendering:auto;enable-background:accumulate;stop-color:#000000;stop-opacity:1"
                   d="m 360.72266,152.74219 a 2.5,2.5 0 0 0 -1.20899,0.33593 2.5,2.5 0 0 0 -0.91601,3.41407 l 9.30859,16.12304 a 2.5,2.5 0 0 0 3.41602,0.91602 2.5,2.5 0 0 0 0.91406,-3.41602 l -9.3086,-16.12304 a 2.5,2.5 0 0 0 -2.20507,-1.25 z"
                   id="path1373" />
              </g>
            </g>
          </g>
          <g
             id="g1959"
             transform="translate(0,-0.00167839)">
            <g
               id="g1947">
              <ellipse
                 style="fill:url(#linearGradient1311);fill-opacity:1;stroke:none;stroke-width:23.5891;stroke-linecap:round;stroke-linejoin:round;stroke-miterlimit:4;stroke-dasharray:none"
                 id="ellipse1293"
                 cx="261.3078"
                 cy="-313.12622"
                 rx="2.5"
                 ry="2.4826317"
                 transform="rotate(75)" />
            </g>
          </g>
          <g
             id="g1963">
            <ellipse
               style="opacity:1;fill:url(#linearGradient1195);fill-opacity:1;stroke:none;stroke-width:23.5891;stroke-linecap:round;stroke-linejoin:round;stroke-miterlimit:4;stroke-dasharray:none"
               id="ellipse1377"
               cx="56.580444"
               cy="388.65057"
               rx="2.5"
               ry="2.4826317"
               transform="matrix(-0.25881904,0.96592583,0.96592583,0.25881904,0,0)" />
          </g>
        </g>
        <g
           id="g2233"
           transform="translate(-251.24035,22.14468)">
          <g
             id="g1997">
            <path
               style="color:#000000;font-style:normal;font-variant:normal;font-weight:normal;font-stretch:normal;font-size:medium;line-height:normal;font-family:sans-serif;font-variant-ligatures:normal;font-variant-position:normal;font-variant-caps:normal;font-variant-numeric:normal;font-variant-alternates:normal;font-variant-east-asian:normal;font-feature-settings:normal;font-variation-settings:normal;text-indent:0;text-align:start;text-decoration:none;text-decoration-line:none;text-decoration-style:solid;text-decoration-color:#000000;letter-spacing:normal;word-spacing:normal;text-transform:none;writing-mode:lr-tb;direction:ltr;text-orientation:mixed;dominant-baseline:auto;baseline-shift:baseline;text-anchor:start;white-space:normal;shape-padding:0;shape-margin:0;inline-size:0;clip-rule:nonzero;display:inline;overflow:visible;visibility:visible;opacity:1;isolation:auto;mix-blend-mode:normal;color-interpolation:sRGB;color-interpolation-filters:linearRGB;solid-color:#000000;solid-opacity:1;vector-effect:none;fill:#000000;fill-opacity:1;fill-rule:nonzero;stroke:none;stroke-linecap:round;stroke-linejoin:round;stroke-miterlimit:4;stroke-dasharray:none;stroke-dashoffset:0;stroke-opacity:1;filter:url(#filter1647);color-rendering:auto;image-rendering:auto;shape-rendering:auto;text-rendering:auto;enable-background:accumulate;stop-color:#000000;stop-opacity:1"
               d="m 342.12695,152.74219 a 2.5,2.5 0 0 0 -2.14453,1.25 l -9.30859,16.12304 a 2.5,2.5 0 0 0 0.91406,3.41602 2.5,2.5 0 0 0 3.41602,-0.91602 l 9.30859,-16.12304 a 2.5,2.5 0 0 0 -0.91602,-3.41407 2.5,2.5 0 0 0 -1.26953,-0.33593 z"
               id="path1645" />
            <path
               style="color:#000000;font-style:normal;font-variant:normal;font-weight:normal;font-stretch:normal;font-size:medium;line-height:normal;font-family:sans-serif;font-variant-ligatures:normal;font-variant-position:normal;font-variant-caps:normal;font-variant-numeric:normal;font-variant-alternates:normal;font-variant-east-asian:normal;font-feature-settings:normal;font-variation-settings:normal;text-indent:0;text-align:start;text-decoration:none;text-decoration-line:none;text-decoration-style:solid;text-decoration-color:#000000;letter-spacing:normal;word-spacing:normal;text-transform:none;writing-mode:lr-tb;direction:ltr;text-orientation:mixed;dominant-baseline:auto;baseline-shift:baseline;text-anchor:start;white-space:normal;shape-padding:0;shape-margin:0;inline-size:0;clip-rule:nonzero;display:inline;overflow:visible;visibility:visible;opacity:1;isolation:auto;mix-blend-mode:normal;color-interpolation:sRGB;color-interpolation-filters:linearRGB;solid-color:#000000;solid-opacity:1;vector-effect:none;fill:#464646;fill-opacity:1;fill-rule:nonzero;stroke:none;stroke-linecap:round;stroke-linejoin:round;stroke-miterlimit:4;stroke-dasharray:none;stroke-dashoffset:0;stroke-opacity:1;color-rendering:auto;image-rendering:auto;shape-rendering:auto;text-rendering:auto;enable-background:accumulate;stop-color:#000000;stop-opacity:1"
               d="m 342.12695,152.74219 a 2.5,2.5 0 0 0 -2.14453,1.25 l -9.30859,16.12304 a 2.5,2.5 0 0 0 0.91406,3.41602 2.5,2.5 0 0 0 3.41602,-0.91602 l 9.30859,-16.12304 a 2.5,2.5 0 0 0 -0.91602,-3.41407 2.5,2.5 0 0 0 -1.26953,-0.33593 z"
               id="path1385" />
          </g>
          <g
             id="g1972">
            <ellipse
               style="fill:url(#linearGradient1245);fill-opacity:1;stroke:none;stroke-width:23.5891;stroke-linecap:round;stroke-linejoin:round;stroke-miterlimit:4;stroke-dasharray:none"
               id="ellipse1387"
               cx="-251.66702"
               cy="277.12875"
               rx="2.5"
               ry="2.4826317"
               transform="rotate(-105)" />
          </g>
          <g
             id="g1967">
            <ellipse
               style="fill:url(#linearGradient1576);fill-opacity:1;stroke:none;stroke-width:23.5891;stroke-linecap:round;stroke-linejoin:round;stroke-miterlimit:4;stroke-dasharray:none"
               id="ellipse1663"
               cx="238.50699"
               cy="-290.30844"
               rx="2.5"
               ry="2.4826317"
               transform="rotate(75)" />
          </g>
        </g>
        <g
           id="g2180"
           transform="translate(-251.24035,22.14468)">
          <g
             id="g2007">
            <path
               style="color:#000000;font-style:normal;font-variant:normal;font-weight:normal;font-stretch:normal;font-size:medium;line-height:normal;font-family:sans-serif;font-variant-ligatures:normal;font-variant-position:normal;font-variant-caps:normal;font-variant-numeric:normal;font-variant-alternates:normal;font-variant-east-asian:normal;font-feature-settings:normal;font-variation-settings:normal;text-indent:0;text-align:start;text-decoration:none;text-decoration-line:none;text-decoration-style:solid;text-decoration-color:#000000;letter-spacing:normal;word-spacing:normal;text-transform:none;writing-mode:lr-tb;direction:ltr;text-orientation:mixed;dominant-baseline:auto;baseline-shift:baseline;text-anchor:start;white-space:normal;shape-padding:0;shape-margin:0;inline-size:0;clip-rule:nonzero;display:inline;overflow:visible;visibility:visible;opacity:1;isolation:auto;mix-blend-mode:normal;color-interpolation:sRGB;color-interpolation-filters:linearRGB;solid-color:#000000;solid-opacity:1;vector-effect:none;fill:#000000;fill-opacity:1;fill-rule:nonzero;stroke:none;stroke-linecap:round;stroke-linejoin:round;stroke-miterlimit:4;stroke-dasharray:none;stroke-dashoffset:0;stroke-opacity:1;filter:url(#filter2001);color-rendering:auto;image-rendering:auto;shape-rendering:auto;text-rendering:auto;enable-background:accumulate;stop-color:#000000;stop-opacity:1"
               d="m 342.14648,185.00586 a 2.5,2.5 0 0 0 -2.5,2.5 2.5,2.5 0 0 0 2.5,2.5 h 18.61719 a 2.5,2.5 0 0 0 2.5,-2.5 2.5,2.5 0 0 0 -2.5,-2.5 z"
               id="path1999" />
            <path
               style="color:#000000;font-style:normal;font-variant:normal;font-weight:normal;font-stretch:normal;font-size:medium;line-height:normal;font-family:sans-serif;font-variant-ligatures:normal;font-variant-position:normal;font-variant-caps:normal;font-variant-numeric:normal;font-variant-alternates:normal;font-variant-east-asian:normal;font-feature-settings:normal;font-variation-settings:normal;text-indent:0;text-align:start;text-decoration:none;text-decoration-line:none;text-decoration-style:solid;text-decoration-color:#000000;letter-spacing:normal;word-spacing:normal;text-transform:none;writing-mode:lr-tb;direction:ltr;text-orientation:mixed;dominant-baseline:auto;baseline-shift:baseline;text-anchor:start;white-space:normal;shape-padding:0;shape-margin:0;inline-size:0;clip-rule:nonzero;display:inline;overflow:visible;visibility:visible;opacity:1;isolation:auto;mix-blend-mode:normal;color-interpolation:sRGB;color-interpolation-filters:linearRGB;solid-color:#000000;solid-opacity:1;vector-effect:none;fill:#464646;fill-opacity:1;fill-rule:nonzero;stroke:none;stroke-linecap:round;stroke-linejoin:round;stroke-miterlimit:4;stroke-dasharray:none;stroke-dashoffset:0;stroke-opacity:1;color-rendering:auto;image-rendering:auto;shape-rendering:auto;text-rendering:auto;enable-background:accumulate;stop-color:#000000;stop-opacity:1"
               d="m 342.14648,185.00586 a 2.5,2.5 0 0 0 -2.5,2.5 2.5,2.5 0 0 0 2.5,2.5 h 18.61719 a 2.5,2.5 0 0 0 2.5,-2.5 2.5,2.5 0 0 0 -2.5,-2.5 z"
               id="path1289" />
          </g>
          <g
             id="g1977">
            <g
               id="g1939">
              <ellipse
                 style="fill:url(#linearGradient1309);fill-opacity:1;stroke:none;stroke-width:23.5891;stroke-linecap:round;stroke-linejoin:round;stroke-miterlimit:4;stroke-dasharray:none"
                 id="ellipse1303"
                 cx="-92.566917"
                 cy="-379.00256"
                 rx="2.5"
                 ry="2.4826317"
                 transform="matrix(0.25881905,-0.96592583,-0.96592583,-0.25881905,0,0)" />
            </g>
          </g>
          <g
             id="g2013">
            <ellipse
               style="fill:url(#linearGradient1313);fill-opacity:1;stroke:none;stroke-width:23.5891;stroke-linecap:round;stroke-linejoin:round;stroke-miterlimit:4;stroke-dasharray:none"
               id="ellipse1295"
               cx="-274.49347"
               cy="299.95651"
               rx="2.5"
               ry="2.4826317"
               transform="rotate(-105)" />
          </g>
        </g>
      </g>
      <g
         aria-label="Prism"
         transform="matrix(0.31121443,0,0,0.31121443,-0.05721411,1.3719098)"
         id="text4831"
         style="font-size:40px;line-height:1.25;font-family:'Ubuntu Mono';-inkscape-font-specification:'Ubuntu Mono';white-space:pre;shape-inside:url(#rect4833);fill:#ffffff">
        <path
           d="m 124.81156,67.778395 v -28 h 9.32 q 3.2,0 5.24,1.16 2.04,1.16 3,3.08 0.96,1.92 0.96,4.24 0,2.32 -0.96,4.24 -0.96,1.92 -3,3.08 -2.04,1.16 -5.24,1.16 h -5.96 v 11.04 z m 3.36,-14.12 h 5.88 q 2.96,0 4.4,-1.48 1.44,-1.52 1.44,-3.92 0,-2.4 -1.44,-3.92 -1.44,-1.52 -4.4,-1.52 h -5.88 z"
           style="font-family:'DM Mono';-inkscape-font-specification:'DM Mono'"
           id="path7853" />
        <path
           d="m 149.2115,67.778395 v -2.88 h 5.08 v -13.08 q 0,-1 -0.96,-1 h -3.6 v -2.88 h 4.84 q 1.32,0 2.12,0.72 0.8,0.72 0.8,2.12 v 0.84 h 0.16 q 0.48,-2 1.8,-3.08 1.36,-1.08 3.76,-1.08 h 3.64 v 3.56 h -4.12 q -2.44,0 -3.76,1.64 -1.32,1.6 -1.32,4.12 v 8.12 h 6.24 v 2.88 z"
           style="font-family:'DM Mono';-inkscape-font-specification:'DM Mono'"
           id="path7855" />
        <path
           d="m 173.85144,67.778395 v -2.88 h 6.32 v -13.08 c 0,-0.666667 -0.33333,-1 -1,-1 h -4.64 v -2.88 h 5.44 c 2.37333,0 3.56,1.186667 3.56,3.56 v 13.4 h 6.32 v 2.88 z"
           style="font-family:'DM Mono';-inkscape-font-specification:'DM Mono'"
           id="path7857"
           sodipodi:nodetypes="cccssccsscccc" />
        <ellipse
           style="fill:url(#linearGradient8015);fill-opacity:1;stroke:none;stroke-width:35.5707;stroke-linecap:round;stroke-linejoin:round;stroke-miterlimit:4;stroke-dasharray:none;shape-rendering:crispEdges"
           id="ellipse7882"
           cx="156.3532"
           cy="-100.82359"
           rx="3.7698181"
           ry="3.7436283"
           transform="rotate(45.000004)" />
        <path
           d="m 206.05138,68.258395 q -3.8,0 -6.16,-1.76 -2.32,-1.8 -2.6,-4.92 h 3.48 q 0.24,1.64 1.6,2.68 1.4,1.04 3.76,1.04 2.24,0 3.32,-0.96 1.12,-0.96 1.12,-2.2 0,-1.68 -1.32,-2.28 -1.32,-0.64 -3.96,-0.96 -3.16,-0.36 -5.24,-1.72 -2.08,-1.36 -2.08,-4.08 0,-2.44 2.04,-4.04 2.04,-1.6 5.56,-1.6 3.48,0 5.48,1.6 2,1.56 2.28,4.48 h -3.32 q -0.12,-1.44 -1.4,-2.28 -1.24,-0.88 -3.12,-0.88 -1.96,0 -3.04,0.76 -1.08,0.72 -1.08,1.92 0,1.2 1.2,2 1.24,0.76 3.88,1 2.08,0.24 3.8,0.8 1.72,0.56 2.72,1.76 1.04,1.2 1.04,3.36 0.04,1.8 -1,3.24 -1,1.4 -2.8,2.24 -1.8,0.8 -4.16,0.8 z"
           style="font-family:'DM Mono';-inkscape-font-specification:'DM Mono'"
           id="path7859" />
        <path
           d="m 219.33132,67.778395 v -19.84 h 2.76 l 0.36,2.32 h 0.2 q 0.52,-1.2 1.56,-2 1.08,-0.8 2.6,-0.8 1.52,0 2.56,0.76 1.08,0.72 1.56,2.04 h 0.16 q 0.52,-1.2 1.68,-2 1.16,-0.8 2.8,-0.8 2.28,0 3.4,1.56 1.16,1.52 1.16,4.08 v 14.68 h -3.28 v -14.16 q 0,-1.44 -0.6,-2.28 -0.56,-0.84 -1.84,-0.84 -1.32,0 -2.16,1 -0.84,1 -0.84,2.84 v 13.44 h -3.32 v -14.16 q 0,-1.44 -0.56,-2.28 -0.56,-0.84 -1.84,-0.84 -1.32,0 -2.2,1 -0.84,1 -0.84,2.84 v 13.44 z"
           style="font-family:'DM Mono';-inkscape-font-specification:'DM Mono'"
           id="path7861" />
      </g>
    </g>
    <text
       xml:space="preserve"
       style="font-style:normal;font-weight:normal;font-size:10.5833px;line-height:1.25;font-family:sans-serif;fill:#000000;fill-opacity:1;stroke:none;stroke-width:0.264583"
       x="17.581734"
       y="-13.134716"
       id="text7635"><tspan
         sodipodi:role="line"
         id="tspan7633"
         style="stroke-width:0.264583"
         x="17.581734"
         y="-13.134716" /></text>
  </g>
</svg>
